<mxfile host="app.diagrams.net" modified="2020-11-19T18:26:10.658Z" agent="5.0 (Macintosh; Intel Mac OS X 10_15_6) AppleWebKit/605.1.15 (KHTML, like Gecko) Version/13.1.2 Safari/605.1.15" etag="tnwb1XKLfyZ7KBtqifWy" version="13.10.0" type="github">
  <diagram id="TMXSOWhYbLECOYfklIyv" name="Page-1">
    <mxGraphModel dx="5068" dy="1445" grid="1" gridSize="10" guides="1" tooltips="1" connect="1" arrows="1" fold="1" page="1" pageScale="1" pageWidth="850" pageHeight="1100" math="0" shadow="0">
      <root>
        <mxCell id="0" />
        <mxCell id="1" parent="0" />
        <mxCell id="WNOsDTk-nys0i8xbJVlw-129" style="edgeStyle=orthogonalEdgeStyle;curved=1;orthogonalLoop=1;jettySize=auto;html=1;exitX=0.5;exitY=1;exitDx=0;exitDy=0;strokeColor=#000000;dashed=1;" parent="1" edge="1">
          <mxGeometry relative="1" as="geometry">
            <mxPoint x="-1820" y="372" as="targetPoint" />
            <mxPoint x="-1910" y="372" as="sourcePoint" />
          </mxGeometry>
        </mxCell>
        <mxCell id="WNOsDTk-nys0i8xbJVlw-130" value="mapping" style="text;html=1;align=center;verticalAlign=middle;resizable=0;points=[];autosize=1;" parent="1" vertex="1">
          <mxGeometry x="-1818" y="360" width="70" height="20" as="geometry" />
        </mxCell>
        <mxCell id="WNOsDTk-nys0i8xbJVlw-131" style="edgeStyle=orthogonalEdgeStyle;curved=1;orthogonalLoop=1;jettySize=auto;html=1;exitX=0.5;exitY=1;exitDx=0;exitDy=0;strokeColor=#000000;" parent="1" edge="1">
          <mxGeometry relative="1" as="geometry">
            <mxPoint x="-1820.0000000000002" y="412" as="targetPoint" />
            <mxPoint x="-1910.0000000000002" y="412" as="sourcePoint" />
          </mxGeometry>
        </mxCell>
        <mxCell id="WNOsDTk-nys0i8xbJVlw-132" value="structural containment" style="text;html=1;align=center;verticalAlign=middle;resizable=0;points=[];autosize=1;" parent="1" vertex="1">
          <mxGeometry x="-1823" y="400" width="160" height="20" as="geometry" />
        </mxCell>
        <mxCell id="WNOsDTk-nys0i8xbJVlw-160" value="&lt;b&gt;GENERAL ISSUES&lt;/b&gt;" style="text;html=1;align=center;verticalAlign=middle;resizable=0;points=[];autosize=1;" parent="1" vertex="1">
          <mxGeometry x="-1870" y="500" width="140" height="20" as="geometry" />
        </mxCell>
        <mxCell id="WNOsDTk-nys0i8xbJVlw-161" value="Compositions and Entries need a language, right now it is hardcoded to &quot;EN&quot;. One solution is the client library, since generates code by OPT, to set the language automatically in the class frm the OPT language. This works if the OPT supports just one language." style="shape=note;whiteSpace=wrap;html=1;backgroundOutline=1;darkOpacity=0.05;fillColor=#fff2cc;strokeColor=#d6b656;size=13;align=left;spacingLeft=4;" parent="1" vertex="1">
          <mxGeometry x="-1998" y="540" width="430" height="75" as="geometry" />
        </mxCell>
        <mxCell id="WNOsDTk-nys0i8xbJVlw-162" value="If the profile has more than one resource, it is difficult to map to one COMPOSITION in a RESTful way since FHIR does one request per resource. The workaround for now is the use the &quot;contained&quot; attribute to direct contain the children resources instead of including them by reference which is the most common option." style="shape=note;whiteSpace=wrap;html=1;backgroundOutline=1;darkOpacity=0.05;fillColor=#fff2cc;strokeColor=#d6b656;size=13;align=left;spacingLeft=4;" parent="1" vertex="1">
          <mxGeometry x="-1998" y="640" width="430" height="90" as="geometry" />
        </mxCell>
        <mxCell id="WNOsDTk-nys0i8xbJVlw-35" value="data point" style="ellipse;whiteSpace=wrap;html=1;aspect=fixed;fillColor=#d5e8d4;strokeColor=#82b366;" parent="1" vertex="1">
          <mxGeometry x="-1980" y="170" width="80" height="80" as="geometry" />
        </mxCell>
        <mxCell id="WNOsDTk-nys0i8xbJVlw-36" value="archetype" style="rounded=1;whiteSpace=wrap;html=1;fillColor=#ffe6cc;strokeColor=#d79b00;" parent="1" vertex="1">
          <mxGeometry x="-1865" y="180" width="125" height="60" as="geometry" />
        </mxCell>
        <mxCell id="WNOsDTk-nys0i8xbJVlw-37" value="template" style="rounded=1;whiteSpace=wrap;html=1;fillColor=#dae8fc;strokeColor=#6c8ebf;" parent="1" vertex="1">
          <mxGeometry x="-1710" y="180" width="120" height="60" as="geometry" />
        </mxCell>
        <mxCell id="WNOsDTk-nys0i8xbJVlw-38" value="profile" style="rounded=1;whiteSpace=wrap;html=1;fillColor=#f8cecc;strokeColor=#b85450;" parent="1" vertex="1">
          <mxGeometry x="-1865" y="270" width="124.5" height="60" as="geometry" />
        </mxCell>
        <mxCell id="WNOsDTk-nys0i8xbJVlw-39" value="note" style="shape=note;whiteSpace=wrap;html=1;backgroundOutline=1;darkOpacity=0.05;fillColor=#fff2cc;strokeColor=#d6b656;size=13;align=left;spacingLeft=4;" parent="1" vertex="1">
          <mxGeometry x="-1710" y="272.5" width="120" height="57.5" as="geometry" />
        </mxCell>
        <mxCell id="2" value="REFERENCE" style="text;html=1;align=center;verticalAlign=middle;resizable=0;points=[];autosize=1;fontStyle=1" parent="1" vertex="1">
          <mxGeometry x="-1852.5" y="120" width="100" height="20" as="geometry" />
        </mxCell>
        <mxCell id="WNOsDTk-nys0i8xbJVlw-103" value="reference" style="ellipse;whiteSpace=wrap;html=1;aspect=fixed;fillColor=#e1d5e7;strokeColor=#9673a6;" parent="1" vertex="1">
          <mxGeometry x="-1980" y="260" width="80" height="80" as="geometry" />
        </mxCell>
        <mxCell id="48C0j_drKvZkJ34L1-IZ-98" value="resource" style="rounded=1;whiteSpace=wrap;html=1;fillColor=#f5f5f5;strokeColor=#666666;fontColor=#333333;" parent="1" vertex="1">
          <mxGeometry x="-1568" y="270" width="124.5" height="60" as="geometry" />
        </mxCell>
        <mxCell id="BWCG1YFNvTNrp1tG9PvR-2" value="BloodPressure - &amp;nbsp;Observation" style="rounded=1;whiteSpace=wrap;html=1;fillColor=#f8cecc;strokeColor=#b85450;" parent="1" vertex="1">
          <mxGeometry x="-742.25" y="260" width="124.5" height="60" as="geometry" />
        </mxCell>
        <UserObject label="https://simplifier.net/forschungsnetzcovid-19/patientinicu" link="https://simplifier.net/forschungsnetzcovid-19/bloodpressure" id="BWCG1YFNvTNrp1tG9PvR-3">
          <mxCell style="shape=note;whiteSpace=wrap;html=1;backgroundOutline=1;darkOpacity=0.05;fillColor=#fff2cc;strokeColor=#d6b656;size=13;align=left;spacingLeft=4;" parent="1" vertex="1">
            <mxGeometry x="-1140" y="255" width="220" height="50" as="geometry" />
          </mxCell>
        </UserObject>
        <mxCell id="BWCG1YFNvTNrp1tG9PvR-5" value="component: Backbone-Element" style="ellipse;whiteSpace=wrap;html=1;aspect=fixed;fillColor=#d5e8d4;strokeColor=#82b366;" parent="1" vertex="1">
          <mxGeometry x="-960" y="400" width="80" height="80" as="geometry" />
        </mxCell>
        <mxCell id="BWCG1YFNvTNrp1tG9PvR-6" value="systolicBP:&lt;br&gt;Backbone-&lt;br&gt;Element" style="ellipse;whiteSpace=wrap;html=1;aspect=fixed;fillColor=#d5e8d4;strokeColor=#82b366;" parent="1" vertex="1">
          <mxGeometry x="-1170" y="560" width="80" height="80" as="geometry" />
        </mxCell>
        <mxCell id="BWCG1YFNvTNrp1tG9PvR-8" value="value:&lt;br&gt;decimal" style="ellipse;whiteSpace=wrap;html=1;aspect=fixed;fillColor=#d5e8d4;strokeColor=#82b366;" parent="1" vertex="1">
          <mxGeometry x="-1270" y="720" width="80" height="80" as="geometry" />
        </mxCell>
        <mxCell id="BWCG1YFNvTNrp1tG9PvR-10" value="code:&amp;nbsp;&lt;br&gt;code" style="ellipse;whiteSpace=wrap;html=1;aspect=fixed;fillColor=#d5e8d4;strokeColor=#82b366;" parent="1" vertex="1">
          <mxGeometry x="-1060" y="720" width="80" height="80" as="geometry" />
        </mxCell>
        <mxCell id="BWCG1YFNvTNrp1tG9PvR-11" style="edgeStyle=orthogonalEdgeStyle;curved=1;orthogonalLoop=1;jettySize=auto;html=1;exitX=0.5;exitY=1;exitDx=0;exitDy=0;strokeColor=#000000;entryX=0.5;entryY=0;entryDx=0;entryDy=0;" parent="1" source="BWCG1YFNvTNrp1tG9PvR-6" target="BWCG1YFNvTNrp1tG9PvR-10" edge="1">
          <mxGeometry relative="1" as="geometry">
            <mxPoint x="-1010" y="630" as="targetPoint" />
            <mxPoint x="-1100.0000000000002" y="630" as="sourcePoint" />
            <Array as="points">
              <mxPoint x="-1130" y="660" />
              <mxPoint x="-1020" y="660" />
            </Array>
          </mxGeometry>
        </mxCell>
        <mxCell id="BWCG1YFNvTNrp1tG9PvR-12" style="edgeStyle=orthogonalEdgeStyle;curved=1;orthogonalLoop=1;jettySize=auto;html=1;exitX=0.5;exitY=1;exitDx=0;exitDy=0;strokeColor=#000000;entryX=0.5;entryY=0;entryDx=0;entryDy=0;" parent="1" source="BWCG1YFNvTNrp1tG9PvR-6" target="BWCG1YFNvTNrp1tG9PvR-8" edge="1">
          <mxGeometry relative="1" as="geometry">
            <mxPoint x="-1170" y="690.0000000000002" as="targetPoint" />
            <mxPoint x="-1240" y="559.9999999999998" as="sourcePoint" />
            <Array as="points">
              <mxPoint x="-1130" y="660" />
              <mxPoint x="-1230" y="660" />
            </Array>
          </mxGeometry>
        </mxCell>
        <mxCell id="h2Y0RTakNAgf0IYQmvkw-2" value="diastolicBP:&lt;br&gt;Backbone-&lt;br&gt;Element" style="ellipse;whiteSpace=wrap;html=1;aspect=fixed;fillColor=#d5e8d4;strokeColor=#82b366;" parent="1" vertex="1">
          <mxGeometry x="-810" y="570" width="80" height="80" as="geometry" />
        </mxCell>
        <mxCell id="h2Y0RTakNAgf0IYQmvkw-3" value="value:&lt;br&gt;decimal" style="ellipse;whiteSpace=wrap;html=1;aspect=fixed;fillColor=#d5e8d4;strokeColor=#82b366;" parent="1" vertex="1">
          <mxGeometry x="-910" y="720" width="80" height="80" as="geometry" />
        </mxCell>
        <mxCell id="h2Y0RTakNAgf0IYQmvkw-4" value="code:&amp;nbsp;&lt;br&gt;code" style="ellipse;whiteSpace=wrap;html=1;aspect=fixed;fillColor=#d5e8d4;strokeColor=#82b366;" parent="1" vertex="1">
          <mxGeometry x="-710" y="720" width="80" height="80" as="geometry" />
        </mxCell>
        <mxCell id="h2Y0RTakNAgf0IYQmvkw-5" style="edgeStyle=orthogonalEdgeStyle;curved=1;orthogonalLoop=1;jettySize=auto;html=1;exitX=0.5;exitY=1;exitDx=0;exitDy=0;strokeColor=#000000;entryX=0.5;entryY=0;entryDx=0;entryDy=0;" parent="1" edge="1">
          <mxGeometry relative="1" as="geometry">
            <mxPoint x="-870" y="725" as="targetPoint" />
            <mxPoint x="-770" y="645" as="sourcePoint" />
            <Array as="points">
              <mxPoint x="-770" y="665" />
              <mxPoint x="-870" y="665" />
            </Array>
          </mxGeometry>
        </mxCell>
        <mxCell id="h2Y0RTakNAgf0IYQmvkw-6" style="edgeStyle=orthogonalEdgeStyle;curved=1;orthogonalLoop=1;jettySize=auto;html=1;exitX=0.5;exitY=1;exitDx=0;exitDy=0;strokeColor=#000000;entryX=0.5;entryY=0;entryDx=0;entryDy=0;" parent="1" edge="1">
          <mxGeometry relative="1" as="geometry">
            <mxPoint x="-660" y="725" as="targetPoint" />
            <mxPoint x="-770" y="645" as="sourcePoint" />
            <Array as="points">
              <mxPoint x="-770" y="665" />
              <mxPoint x="-660" y="665" />
            </Array>
          </mxGeometry>
        </mxCell>
        <mxCell id="h2Y0RTakNAgf0IYQmvkw-7" style="edgeStyle=orthogonalEdgeStyle;curved=1;orthogonalLoop=1;jettySize=auto;html=1;strokeColor=#000000;entryX=0.5;entryY=0;entryDx=0;entryDy=0;exitX=0.5;exitY=1;exitDx=0;exitDy=0;" parent="1" source="BWCG1YFNvTNrp1tG9PvR-5" target="BWCG1YFNvTNrp1tG9PvR-6" edge="1">
          <mxGeometry relative="1" as="geometry">
            <mxPoint x="-1050" y="550" as="targetPoint" />
            <mxPoint x="-950" y="470" as="sourcePoint" />
            <Array as="points">
              <mxPoint x="-920" y="520" />
              <mxPoint x="-1130" y="520" />
            </Array>
          </mxGeometry>
        </mxCell>
        <mxCell id="h2Y0RTakNAgf0IYQmvkw-8" style="edgeStyle=orthogonalEdgeStyle;curved=1;orthogonalLoop=1;jettySize=auto;html=1;exitX=0.5;exitY=1;exitDx=0;exitDy=0;strokeColor=#000000;entryX=0.5;entryY=0;entryDx=0;entryDy=0;" parent="1" source="BWCG1YFNvTNrp1tG9PvR-5" target="h2Y0RTakNAgf0IYQmvkw-2" edge="1">
          <mxGeometry relative="1" as="geometry">
            <mxPoint x="-800" y="560" as="targetPoint" />
            <mxPoint x="-910" y="480" as="sourcePoint" />
            <Array as="points">
              <mxPoint x="-920" y="520" />
              <mxPoint x="-770" y="520" />
            </Array>
          </mxGeometry>
        </mxCell>
        <mxCell id="h2Y0RTakNAgf0IYQmvkw-9" value="subject: ref" style="ellipse;whiteSpace=wrap;html=1;aspect=fixed;fillColor=#e1d5e7;strokeColor=#9673a6;" parent="1" vertex="1">
          <mxGeometry x="-620" y="400" width="80" height="80" as="geometry" />
        </mxCell>
        <mxCell id="h2Y0RTakNAgf0IYQmvkw-10" style="edgeStyle=orthogonalEdgeStyle;curved=1;orthogonalLoop=1;jettySize=auto;html=1;strokeColor=#000000;entryX=0.5;entryY=0;entryDx=0;entryDy=0;exitX=0.5;exitY=1;exitDx=0;exitDy=0;" parent="1" source="BWCG1YFNvTNrp1tG9PvR-2" target="h2Y0RTakNAgf0IYQmvkw-9" edge="1">
          <mxGeometry relative="1" as="geometry">
            <mxPoint x="-760" y="580" as="targetPoint" />
            <mxPoint x="-910" y="490" as="sourcePoint" />
            <Array as="points">
              <mxPoint x="-680" y="350" />
              <mxPoint x="-580" y="350" />
            </Array>
          </mxGeometry>
        </mxCell>
        <mxCell id="h2Y0RTakNAgf0IYQmvkw-11" style="edgeStyle=orthogonalEdgeStyle;curved=1;orthogonalLoop=1;jettySize=auto;html=1;strokeColor=#000000;entryX=0.5;entryY=0;entryDx=0;entryDy=0;exitX=0.5;exitY=1;exitDx=0;exitDy=0;" parent="1" target="BWCG1YFNvTNrp1tG9PvR-5" edge="1">
          <mxGeometry relative="1" as="geometry">
            <mxPoint x="-890" y="400" as="targetPoint" />
            <mxPoint x="-680" y="320" as="sourcePoint" />
            <Array as="points">
              <mxPoint x="-680" y="360" />
              <mxPoint x="-920" y="360" />
            </Array>
          </mxGeometry>
        </mxCell>
        <mxCell id="h2Y0RTakNAgf0IYQmvkw-13" value="effective: dateTime" style="ellipse;whiteSpace=wrap;html=1;aspect=fixed;fillColor=#d5e8d4;strokeColor=#82b366;" parent="1" vertex="1">
          <mxGeometry x="-480" y="400" width="80" height="80" as="geometry" />
        </mxCell>
        <mxCell id="h2Y0RTakNAgf0IYQmvkw-14" style="edgeStyle=orthogonalEdgeStyle;curved=1;orthogonalLoop=1;jettySize=auto;html=1;strokeColor=#000000;entryX=0.5;entryY=0;entryDx=0;entryDy=0;exitX=0.5;exitY=1;exitDx=0;exitDy=0;" parent="1" source="BWCG1YFNvTNrp1tG9PvR-2" target="h2Y0RTakNAgf0IYQmvkw-13" edge="1">
          <mxGeometry relative="1" as="geometry">
            <mxPoint x="-570" y="410" as="targetPoint" />
            <mxPoint x="-670" y="330" as="sourcePoint" />
            <Array as="points">
              <mxPoint x="-680" y="330" />
              <mxPoint x="-440" y="330" />
            </Array>
          </mxGeometry>
        </mxCell>
        <mxCell id="h2Y0RTakNAgf0IYQmvkw-15" value="Blutdruck" style="rounded=1;whiteSpace=wrap;html=1;fillColor=#dae8fc;strokeColor=#6c8ebf;" parent="1" vertex="1">
          <mxGeometry x="-110" y="260" width="200" height="60" as="geometry" />
        </mxCell>
        <mxCell id="h2Y0RTakNAgf0IYQmvkw-16" value="&lt;div class=&quot;cm-node-details-value cm-node-details-arch-id&quot;&gt;openEHR-EHR-COMPOSITION.report-result.v1&lt;/div&gt;" style="rounded=1;whiteSpace=wrap;html=1;fillColor=#ffe6cc;strokeColor=#d79b00;" parent="1" vertex="1">
          <mxGeometry x="-110" y="380" width="200" height="60" as="geometry" />
        </mxCell>
        <mxCell id="h2Y0RTakNAgf0IYQmvkw-17" value="&lt;div class=&quot;cm-node-details-value cm-node-details-arch-id&quot;&gt;&lt;span style=&quot;font-size: 11px&quot;&gt;openEHR-EHR-OBSERVATION.blood_pressure.v2&lt;/span&gt;&lt;br&gt;&lt;/div&gt;" style="rounded=1;whiteSpace=wrap;html=1;fillColor=#ffe6cc;strokeColor=#d79b00;" parent="1" vertex="1">
          <mxGeometry x="-260" y="520" width="200" height="60" as="geometry" />
        </mxCell>
        <mxCell id="h2Y0RTakNAgf0IYQmvkw-18" value="status: String" style="ellipse;whiteSpace=wrap;html=1;aspect=fixed;fillColor=#d5e8d4;strokeColor=#82b366;" parent="1" vertex="1">
          <mxGeometry x="510" y="520" width="80" height="80" as="geometry" />
        </mxCell>
        <mxCell id="h2Y0RTakNAgf0IYQmvkw-19" value="kategorie:&lt;br&gt;String" style="ellipse;whiteSpace=wrap;html=1;aspect=fixed;fillColor=#d5e8d4;strokeColor=#82b366;" parent="1" vertex="1">
          <mxGeometry x="645" y="520" width="80" height="80" as="geometry" />
        </mxCell>
        <mxCell id="h2Y0RTakNAgf0IYQmvkw-20" value="diastolisch-&lt;br&gt;Magnitude:&lt;br&gt;double" style="ellipse;whiteSpace=wrap;html=1;aspect=fixed;fillColor=#d5e8d4;strokeColor=#82b366;" parent="1" vertex="1">
          <mxGeometry x="-360" y="645" width="80" height="80" as="geometry" />
        </mxCell>
        <mxCell id="h2Y0RTakNAgf0IYQmvkw-21" value="diastolisch-Units:&lt;br&gt;String" style="ellipse;whiteSpace=wrap;html=1;aspect=fixed;fillColor=#d5e8d4;strokeColor=#82b366;" parent="1" vertex="1">
          <mxGeometry x="-230" y="640" width="80" height="80" as="geometry" />
        </mxCell>
        <mxCell id="h2Y0RTakNAgf0IYQmvkw-22" value="systolisch-&lt;br&gt;Magnitude:&lt;br&gt;double" style="ellipse;whiteSpace=wrap;html=1;aspect=fixed;fillColor=#d5e8d4;strokeColor=#82b366;" parent="1" vertex="1">
          <mxGeometry x="-30" y="640" width="80" height="80" as="geometry" />
        </mxCell>
        <mxCell id="h2Y0RTakNAgf0IYQmvkw-23" value="systolisch-Units:&lt;br&gt;String" style="ellipse;whiteSpace=wrap;html=1;aspect=fixed;fillColor=#d5e8d4;strokeColor=#82b366;" parent="1" vertex="1">
          <mxGeometry x="100" y="640" width="80" height="80" as="geometry" />
        </mxCell>
        <mxCell id="h2Y0RTakNAgf0IYQmvkw-24" value="timeValue:&lt;br&gt;Temporal-&lt;br&gt;Accessor" style="ellipse;whiteSpace=wrap;html=1;aspect=fixed;fillColor=#d5e8d4;strokeColor=#82b366;" parent="1" vertex="1">
          <mxGeometry x="260" y="645" width="80" height="80" as="geometry" />
        </mxCell>
        <mxCell id="h2Y0RTakNAgf0IYQmvkw-25" value="originValue:&lt;br&gt;Temporal-&lt;br&gt;Accessor" style="ellipse;whiteSpace=wrap;html=1;aspect=fixed;fillColor=#d5e8d4;strokeColor=#82b366;" parent="1" vertex="1">
          <mxGeometry x="410" y="640" width="80" height="80" as="geometry" />
        </mxCell>
        <mxCell id="h2Y0RTakNAgf0IYQmvkw-26" value="start time: DateTime" style="ellipse;whiteSpace=wrap;html=1;aspect=fixed;fillColor=#d5e8d4;strokeColor=#82b366;" parent="1" vertex="1">
          <mxGeometry x="790" y="520" width="80" height="80" as="geometry" />
        </mxCell>
        <mxCell id="h2Y0RTakNAgf0IYQmvkw-27" style="edgeStyle=orthogonalEdgeStyle;curved=1;orthogonalLoop=1;jettySize=auto;html=1;exitX=0.5;exitY=1;exitDx=0;exitDy=0;strokeColor=#000000;entryX=0.5;entryY=0;entryDx=0;entryDy=0;" parent="1" source="h2Y0RTakNAgf0IYQmvkw-17" target="h2Y0RTakNAgf0IYQmvkw-20" edge="1">
          <mxGeometry relative="1" as="geometry">
            <mxPoint x="-310" y="660" as="targetPoint" />
            <mxPoint x="-210" y="580" as="sourcePoint" />
            <Array as="points">
              <mxPoint x="-160" y="600" />
              <mxPoint x="-320" y="600" />
            </Array>
          </mxGeometry>
        </mxCell>
        <mxCell id="h2Y0RTakNAgf0IYQmvkw-28" style="edgeStyle=orthogonalEdgeStyle;curved=1;orthogonalLoop=1;jettySize=auto;html=1;exitX=0.5;exitY=1;exitDx=0;exitDy=0;strokeColor=#000000;entryX=0.5;entryY=0;entryDx=0;entryDy=0;" parent="1" source="h2Y0RTakNAgf0IYQmvkw-17" target="h2Y0RTakNAgf0IYQmvkw-21" edge="1">
          <mxGeometry relative="1" as="geometry">
            <mxPoint x="-310" y="655" as="targetPoint" />
            <mxPoint x="-150" y="590" as="sourcePoint" />
            <Array as="points">
              <mxPoint x="-160" y="610" />
              <mxPoint x="-190" y="610" />
            </Array>
          </mxGeometry>
        </mxCell>
        <mxCell id="h2Y0RTakNAgf0IYQmvkw-29" style="edgeStyle=orthogonalEdgeStyle;curved=1;orthogonalLoop=1;jettySize=auto;html=1;strokeColor=#000000;entryX=0.5;entryY=0;entryDx=0;entryDy=0;" parent="1" target="h2Y0RTakNAgf0IYQmvkw-22" edge="1">
          <mxGeometry relative="1" as="geometry">
            <mxPoint x="-180" y="650" as="targetPoint" />
            <mxPoint x="-160" y="580" as="sourcePoint" />
            <Array as="points">
              <mxPoint x="-160" y="600" />
              <mxPoint x="10" y="600" />
            </Array>
          </mxGeometry>
        </mxCell>
        <mxCell id="h2Y0RTakNAgf0IYQmvkw-30" style="edgeStyle=orthogonalEdgeStyle;curved=1;orthogonalLoop=1;jettySize=auto;html=1;strokeColor=#000000;entryX=0.5;entryY=0;entryDx=0;entryDy=0;exitX=0.5;exitY=1;exitDx=0;exitDy=0;" parent="1" source="h2Y0RTakNAgf0IYQmvkw-17" target="h2Y0RTakNAgf0IYQmvkw-23" edge="1">
          <mxGeometry relative="1" as="geometry">
            <mxPoint x="20" y="650" as="targetPoint" />
            <mxPoint x="-150" y="590" as="sourcePoint" />
            <Array as="points">
              <mxPoint x="-160" y="590" />
              <mxPoint x="140" y="590" />
            </Array>
          </mxGeometry>
        </mxCell>
        <mxCell id="h2Y0RTakNAgf0IYQmvkw-31" style="edgeStyle=orthogonalEdgeStyle;curved=1;orthogonalLoop=1;jettySize=auto;html=1;strokeColor=#000000;exitX=0.5;exitY=1;exitDx=0;exitDy=0;entryX=0.5;entryY=0;entryDx=0;entryDy=0;" parent="1" source="h2Y0RTakNAgf0IYQmvkw-17" target="h2Y0RTakNAgf0IYQmvkw-24" edge="1">
          <mxGeometry relative="1" as="geometry">
            <mxPoint x="340" y="530" as="targetPoint" />
            <mxPoint x="-150" y="590" as="sourcePoint" />
            <Array as="points">
              <mxPoint x="-160" y="590" />
              <mxPoint x="300" y="590" />
            </Array>
          </mxGeometry>
        </mxCell>
        <mxCell id="h2Y0RTakNAgf0IYQmvkw-32" style="edgeStyle=orthogonalEdgeStyle;curved=1;orthogonalLoop=1;jettySize=auto;html=1;strokeColor=#000000;exitX=0.5;exitY=1;exitDx=0;exitDy=0;entryX=0.5;entryY=0;entryDx=0;entryDy=0;" parent="1" source="h2Y0RTakNAgf0IYQmvkw-17" target="h2Y0RTakNAgf0IYQmvkw-25" edge="1">
          <mxGeometry relative="1" as="geometry">
            <mxPoint x="310" y="655" as="targetPoint" />
            <mxPoint x="-150" y="590" as="sourcePoint" />
            <Array as="points">
              <mxPoint x="-160" y="600" />
              <mxPoint x="450" y="600" />
            </Array>
          </mxGeometry>
        </mxCell>
        <mxCell id="h2Y0RTakNAgf0IYQmvkw-33" style="edgeStyle=orthogonalEdgeStyle;curved=1;orthogonalLoop=1;jettySize=auto;html=1;exitX=0.5;exitY=1;exitDx=0;exitDy=0;strokeColor=#000000;entryX=0.5;entryY=0;entryDx=0;entryDy=0;" parent="1" source="h2Y0RTakNAgf0IYQmvkw-16" target="h2Y0RTakNAgf0IYQmvkw-17" edge="1">
          <mxGeometry relative="1" as="geometry">
            <mxPoint x="-310" y="655" as="targetPoint" />
            <mxPoint x="-150" y="590" as="sourcePoint" />
            <Array as="points">
              <mxPoint x="-10" y="490" />
              <mxPoint x="-160" y="490" />
            </Array>
          </mxGeometry>
        </mxCell>
        <mxCell id="h2Y0RTakNAgf0IYQmvkw-34" style="edgeStyle=orthogonalEdgeStyle;curved=1;orthogonalLoop=1;jettySize=auto;html=1;exitX=0.5;exitY=1;exitDx=0;exitDy=0;strokeColor=#000000;entryX=0.5;entryY=0;entryDx=0;entryDy=0;" parent="1" source="h2Y0RTakNAgf0IYQmvkw-16" target="h2Y0RTakNAgf0IYQmvkw-18" edge="1">
          <mxGeometry relative="1" as="geometry">
            <mxPoint x="-150" y="530" as="targetPoint" />
            <mxPoint y="450" as="sourcePoint" />
            <Array as="points">
              <mxPoint x="-10" y="500" />
              <mxPoint x="550" y="500" />
            </Array>
          </mxGeometry>
        </mxCell>
        <mxCell id="h2Y0RTakNAgf0IYQmvkw-35" style="edgeStyle=orthogonalEdgeStyle;curved=1;orthogonalLoop=1;jettySize=auto;html=1;exitX=0.5;exitY=1;exitDx=0;exitDy=0;strokeColor=#000000;entryX=0.5;entryY=0;entryDx=0;entryDy=0;" parent="1" source="h2Y0RTakNAgf0IYQmvkw-16" target="h2Y0RTakNAgf0IYQmvkw-19" edge="1">
          <mxGeometry relative="1" as="geometry">
            <mxPoint x="560" y="530" as="targetPoint" />
            <mxPoint y="450" as="sourcePoint" />
            <Array as="points">
              <mxPoint x="-10" y="470" />
              <mxPoint x="685" y="470" />
            </Array>
          </mxGeometry>
        </mxCell>
        <mxCell id="h2Y0RTakNAgf0IYQmvkw-36" style="edgeStyle=orthogonalEdgeStyle;curved=1;orthogonalLoop=1;jettySize=auto;html=1;exitX=0.5;exitY=1;exitDx=0;exitDy=0;strokeColor=#000000;entryX=0.5;entryY=0;entryDx=0;entryDy=0;" parent="1" source="h2Y0RTakNAgf0IYQmvkw-16" target="h2Y0RTakNAgf0IYQmvkw-26" edge="1">
          <mxGeometry relative="1" as="geometry">
            <mxPoint x="695" y="530" as="targetPoint" />
            <mxPoint y="450" as="sourcePoint" />
            <Array as="points">
              <mxPoint x="-10" y="460" />
              <mxPoint x="830" y="460" />
            </Array>
          </mxGeometry>
        </mxCell>
        <mxCell id="h2Y0RTakNAgf0IYQmvkw-38" value="" style="endArrow=classic;html=1;exitX=0.5;exitY=1;exitDx=0;exitDy=0;entryX=0.5;entryY=0;entryDx=0;entryDy=0;" parent="1" source="h2Y0RTakNAgf0IYQmvkw-15" target="h2Y0RTakNAgf0IYQmvkw-16" edge="1">
          <mxGeometry width="50" height="50" relative="1" as="geometry">
            <mxPoint x="90" y="600" as="sourcePoint" />
            <mxPoint x="140" y="550" as="targetPoint" />
            <Array as="points" />
          </mxGeometry>
        </mxCell>
        <mxCell id="h2Y0RTakNAgf0IYQmvkw-39" style="edgeStyle=orthogonalEdgeStyle;curved=1;orthogonalLoop=1;jettySize=auto;html=1;exitX=0.5;exitY=1;exitDx=0;exitDy=0;dashed=1;entryX=0.5;entryY=1;entryDx=0;entryDy=0;strokeColor=#FF0000;" parent="1" source="BWCG1YFNvTNrp1tG9PvR-8" target="h2Y0RTakNAgf0IYQmvkw-22" edge="1">
          <mxGeometry relative="1" as="geometry">
            <mxPoint x="330" y="820" as="targetPoint" />
            <mxPoint x="-1110" y="1200" as="sourcePoint" />
          </mxGeometry>
        </mxCell>
        <mxCell id="h2Y0RTakNAgf0IYQmvkw-40" style="edgeStyle=orthogonalEdgeStyle;curved=1;orthogonalLoop=1;jettySize=auto;html=1;exitX=0.5;exitY=1;exitDx=0;exitDy=0;dashed=1;entryX=0.5;entryY=1;entryDx=0;entryDy=0;strokeColor=#FF0000;" parent="1" source="BWCG1YFNvTNrp1tG9PvR-10" target="h2Y0RTakNAgf0IYQmvkw-23" edge="1">
          <mxGeometry relative="1" as="geometry">
            <mxPoint x="20" y="730" as="targetPoint" />
            <mxPoint x="-1220" y="810" as="sourcePoint" />
          </mxGeometry>
        </mxCell>
        <mxCell id="h2Y0RTakNAgf0IYQmvkw-41" style="edgeStyle=orthogonalEdgeStyle;curved=1;orthogonalLoop=1;jettySize=auto;html=1;exitX=0.5;exitY=1;exitDx=0;exitDy=0;dashed=1;entryX=0.5;entryY=1;entryDx=0;entryDy=0;strokeColor=#FF0000;" parent="1" source="h2Y0RTakNAgf0IYQmvkw-3" target="h2Y0RTakNAgf0IYQmvkw-20" edge="1">
          <mxGeometry relative="1" as="geometry">
            <mxPoint x="20" y="730" as="targetPoint" />
            <mxPoint x="-1220" y="810" as="sourcePoint" />
          </mxGeometry>
        </mxCell>
        <mxCell id="h2Y0RTakNAgf0IYQmvkw-42" style="edgeStyle=orthogonalEdgeStyle;curved=1;orthogonalLoop=1;jettySize=auto;html=1;exitX=0.5;exitY=1;exitDx=0;exitDy=0;dashed=1;entryX=0.5;entryY=1;entryDx=0;entryDy=0;strokeColor=#FF0000;" parent="1" source="h2Y0RTakNAgf0IYQmvkw-4" target="h2Y0RTakNAgf0IYQmvkw-21" edge="1">
          <mxGeometry relative="1" as="geometry">
            <mxPoint x="-310" y="735" as="targetPoint" />
            <mxPoint x="-860" y="810" as="sourcePoint" />
          </mxGeometry>
        </mxCell>
        <mxCell id="h2Y0RTakNAgf0IYQmvkw-43" style="edgeStyle=orthogonalEdgeStyle;curved=1;orthogonalLoop=1;jettySize=auto;html=1;exitX=0.5;exitY=1;exitDx=0;exitDy=0;dashed=1;entryX=0.5;entryY=1;entryDx=0;entryDy=0;" parent="1" source="h2Y0RTakNAgf0IYQmvkw-13" target="h2Y0RTakNAgf0IYQmvkw-24" edge="1">
          <mxGeometry relative="1" as="geometry">
            <mxPoint x="-180" y="730" as="targetPoint" />
            <mxPoint x="-660" y="810" as="sourcePoint" />
            <Array as="points">
              <mxPoint x="-440" y="820" />
              <mxPoint x="300" y="820" />
            </Array>
          </mxGeometry>
        </mxCell>
        <mxCell id="h2Y0RTakNAgf0IYQmvkw-44" style="edgeStyle=orthogonalEdgeStyle;curved=1;orthogonalLoop=1;jettySize=auto;html=1;exitX=0.5;exitY=1;exitDx=0;exitDy=0;dashed=1;entryX=0.5;entryY=1;entryDx=0;entryDy=0;" parent="1" source="h2Y0RTakNAgf0IYQmvkw-13" target="h2Y0RTakNAgf0IYQmvkw-25" edge="1">
          <mxGeometry relative="1" as="geometry">
            <mxPoint x="310" y="735" as="targetPoint" />
            <mxPoint x="-430" y="490" as="sourcePoint" />
            <Array as="points">
              <mxPoint x="-430" y="480" />
              <mxPoint x="-430" y="830" />
              <mxPoint x="450" y="830" />
            </Array>
          </mxGeometry>
        </mxCell>
        <mxCell id="h2Y0RTakNAgf0IYQmvkw-45" style="edgeStyle=orthogonalEdgeStyle;curved=1;orthogonalLoop=1;jettySize=auto;html=1;exitX=0.5;exitY=1;exitDx=0;exitDy=0;dashed=1;entryX=0.5;entryY=1;entryDx=0;entryDy=0;" parent="1" source="h2Y0RTakNAgf0IYQmvkw-13" target="h2Y0RTakNAgf0IYQmvkw-26" edge="1">
          <mxGeometry relative="1" as="geometry">
            <mxPoint x="460" y="730" as="targetPoint" />
            <mxPoint x="-430" y="490" as="sourcePoint" />
            <Array as="points">
              <mxPoint x="-448" y="480" />
              <mxPoint x="-448" y="860" />
              <mxPoint x="830" y="860" />
            </Array>
          </mxGeometry>
        </mxCell>
      </root>
    </mxGraphModel>
  </diagram>
</mxfile>
